G04 #@! TF.GenerationSoftware,KiCad,Pcbnew,(5.0.1-3-g963ef8bb5)*
G04 #@! TF.CreationDate,2021-05-31T16:28:18-07:00*
G04 #@! TF.ProjectId,three chip plus,7468726565206368697020706C75732E,ISS2*
G04 #@! TF.SameCoordinates,Original*
G04 #@! TF.FileFunction,Legend,Bot*
G04 #@! TF.FilePolarity,Positive*
%FSLAX46Y46*%
G04 Gerber Fmt 4.6, Leading zero omitted, Abs format (unit mm)*
G04 Created by KiCad (PCBNEW (5.0.1-3-g963ef8bb5)) date Monday, 31 May 2021 at 16:28:18*
%MOMM*%
%LPD*%
G01*
G04 APERTURE LIST*
%ADD10C,0.150000*%
%ADD11C,0.300000*%
G04 APERTURE END LIST*
D10*
G36*
X31877000Y-202184000D02*
X44958000Y-202184000D01*
X44958000Y-215265000D01*
X31877000Y-215265000D01*
X31877000Y-202184000D01*
G37*
X31877000Y-202184000D02*
X44958000Y-202184000D01*
X44958000Y-215265000D01*
X31877000Y-215265000D01*
X31877000Y-202184000D01*
G36*
X154686000Y-202184000D02*
X167767000Y-202184000D01*
X167767000Y-215265000D01*
X154686000Y-215265000D01*
X154686000Y-202184000D01*
G37*
X154686000Y-202184000D02*
X167767000Y-202184000D01*
X167767000Y-215265000D01*
X154686000Y-215265000D01*
X154686000Y-202184000D01*
G36*
X154686000Y-19685000D02*
X167767000Y-19685000D01*
X167767000Y-32766000D01*
X154686000Y-32766000D01*
X154686000Y-19685000D01*
G37*
X154686000Y-19685000D02*
X167767000Y-19685000D01*
X167767000Y-32766000D01*
X154686000Y-32766000D01*
X154686000Y-19685000D01*
G36*
X31877000Y-19685000D02*
X44958000Y-19685000D01*
X44958000Y-32766000D01*
X31877000Y-32766000D01*
X31877000Y-19685000D01*
G37*
X31877000Y-19685000D02*
X44958000Y-19685000D01*
X44958000Y-32766000D01*
X31877000Y-32766000D01*
X31877000Y-19685000D01*
D11*
X166505714Y-40961571D02*
X165648571Y-40961571D01*
X166077142Y-42461571D02*
X166077142Y-40961571D01*
X165148571Y-42461571D02*
X165148571Y-40961571D01*
X165148571Y-41675857D02*
X164291428Y-41675857D01*
X164291428Y-42461571D02*
X164291428Y-40961571D01*
X162720000Y-42461571D02*
X163220000Y-41747285D01*
X163577142Y-42461571D02*
X163577142Y-40961571D01*
X163005714Y-40961571D01*
X162862857Y-41033000D01*
X162791428Y-41104428D01*
X162720000Y-41247285D01*
X162720000Y-41461571D01*
X162791428Y-41604428D01*
X162862857Y-41675857D01*
X163005714Y-41747285D01*
X163577142Y-41747285D01*
X162077142Y-41675857D02*
X161577142Y-41675857D01*
X161362857Y-42461571D02*
X162077142Y-42461571D01*
X162077142Y-40961571D01*
X161362857Y-40961571D01*
X160720000Y-41675857D02*
X160220000Y-41675857D01*
X160005714Y-42461571D02*
X160720000Y-42461571D01*
X160720000Y-40961571D01*
X160005714Y-40961571D01*
X157362857Y-42318714D02*
X157434285Y-42390142D01*
X157648571Y-42461571D01*
X157791428Y-42461571D01*
X158005714Y-42390142D01*
X158148571Y-42247285D01*
X158220000Y-42104428D01*
X158291428Y-41818714D01*
X158291428Y-41604428D01*
X158220000Y-41318714D01*
X158148571Y-41175857D01*
X158005714Y-41033000D01*
X157791428Y-40961571D01*
X157648571Y-40961571D01*
X157434285Y-41033000D01*
X157362857Y-41104428D01*
X156720000Y-42461571D02*
X156720000Y-40961571D01*
X156720000Y-41675857D02*
X155862857Y-41675857D01*
X155862857Y-42461571D02*
X155862857Y-40961571D01*
X155148571Y-42461571D02*
X155148571Y-40961571D01*
X154434285Y-42461571D02*
X154434285Y-40961571D01*
X153862857Y-40961571D01*
X153720000Y-41033000D01*
X153648571Y-41104428D01*
X153577142Y-41247285D01*
X153577142Y-41461571D01*
X153648571Y-41604428D01*
X153720000Y-41675857D01*
X153862857Y-41747285D01*
X154434285Y-41747285D01*
X151791428Y-42461571D02*
X151791428Y-40961571D01*
X151220000Y-40961571D01*
X151077142Y-41033000D01*
X151005714Y-41104428D01*
X150934285Y-41247285D01*
X150934285Y-41461571D01*
X151005714Y-41604428D01*
X151077142Y-41675857D01*
X151220000Y-41747285D01*
X151791428Y-41747285D01*
X149577142Y-42461571D02*
X150291428Y-42461571D01*
X150291428Y-40961571D01*
X149077142Y-40961571D02*
X149077142Y-42175857D01*
X149005714Y-42318714D01*
X148934285Y-42390142D01*
X148791428Y-42461571D01*
X148505714Y-42461571D01*
X148362857Y-42390142D01*
X148291428Y-42318714D01*
X148220000Y-42175857D01*
X148220000Y-40961571D01*
X147577142Y-42390142D02*
X147362857Y-42461571D01*
X147005714Y-42461571D01*
X146862857Y-42390142D01*
X146791428Y-42318714D01*
X146720000Y-42175857D01*
X146720000Y-42033000D01*
X146791428Y-41890142D01*
X146862857Y-41818714D01*
X147005714Y-41747285D01*
X147291428Y-41675857D01*
X147434285Y-41604428D01*
X147505714Y-41533000D01*
X147577142Y-41390142D01*
X147577142Y-41247285D01*
X147505714Y-41104428D01*
X147434285Y-41033000D01*
X147291428Y-40961571D01*
X146934285Y-40961571D01*
X146720000Y-41033000D01*
X144291428Y-42390142D02*
X144434285Y-42461571D01*
X144720000Y-42461571D01*
X144862857Y-42390142D01*
X144934285Y-42318714D01*
X145005714Y-42175857D01*
X145005714Y-41747285D01*
X144934285Y-41604428D01*
X144862857Y-41533000D01*
X144720000Y-41461571D01*
X144434285Y-41461571D01*
X144291428Y-41533000D01*
X143434285Y-42461571D02*
X143577142Y-42390142D01*
X143648571Y-42247285D01*
X143648571Y-40961571D01*
X142648571Y-42461571D02*
X142791428Y-42390142D01*
X142862857Y-42318714D01*
X142934285Y-42175857D01*
X142934285Y-41747285D01*
X142862857Y-41604428D01*
X142791428Y-41533000D01*
X142648571Y-41461571D01*
X142434285Y-41461571D01*
X142291428Y-41533000D01*
X142220000Y-41604428D01*
X142148571Y-41747285D01*
X142148571Y-42175857D01*
X142220000Y-42318714D01*
X142291428Y-42390142D01*
X142434285Y-42461571D01*
X142648571Y-42461571D01*
X141505714Y-41461571D02*
X141505714Y-42461571D01*
X141505714Y-41604428D02*
X141434285Y-41533000D01*
X141291428Y-41461571D01*
X141077142Y-41461571D01*
X140934285Y-41533000D01*
X140862857Y-41675857D01*
X140862857Y-42461571D01*
X139577142Y-42390142D02*
X139719999Y-42461571D01*
X140005714Y-42461571D01*
X140148571Y-42390142D01*
X140219999Y-42247285D01*
X140219999Y-41675857D01*
X140148571Y-41533000D01*
X140005714Y-41461571D01*
X139719999Y-41461571D01*
X139577142Y-41533000D01*
X139505714Y-41675857D01*
X139505714Y-41818714D01*
X140219999Y-41961571D01*
X137719999Y-42461571D02*
X137719999Y-40961571D01*
X137719999Y-41533000D02*
X137577142Y-41461571D01*
X137291428Y-41461571D01*
X137148571Y-41533000D01*
X137077142Y-41604428D01*
X137005714Y-41747285D01*
X137005714Y-42175857D01*
X137077142Y-42318714D01*
X137148571Y-42390142D01*
X137291428Y-42461571D01*
X137577142Y-42461571D01*
X137719999Y-42390142D01*
X136505714Y-41461571D02*
X136148571Y-42461571D01*
X135791428Y-41461571D02*
X136148571Y-42461571D01*
X136291428Y-42818714D01*
X136362857Y-42890142D01*
X136505714Y-42961571D01*
X134148571Y-42390142D02*
X134005714Y-42461571D01*
X133719999Y-42461571D01*
X133577142Y-42390142D01*
X133505714Y-42247285D01*
X133505714Y-42175857D01*
X133577142Y-42033000D01*
X133719999Y-41961571D01*
X133934285Y-41961571D01*
X134077142Y-41890142D01*
X134148571Y-41747285D01*
X134148571Y-41675857D01*
X134077142Y-41533000D01*
X133934285Y-41461571D01*
X133719999Y-41461571D01*
X133577142Y-41533000D01*
X133077142Y-41461571D02*
X132505714Y-41461571D01*
X132862857Y-40961571D02*
X132862857Y-42247285D01*
X132791428Y-42390142D01*
X132648571Y-42461571D01*
X132505714Y-42461571D01*
X131434285Y-42390142D02*
X131577142Y-42461571D01*
X131862857Y-42461571D01*
X132005714Y-42390142D01*
X132077142Y-42247285D01*
X132077142Y-41675857D01*
X132005714Y-41533000D01*
X131862857Y-41461571D01*
X131577142Y-41461571D01*
X131434285Y-41533000D01*
X131362857Y-41675857D01*
X131362857Y-41818714D01*
X132077142Y-41961571D01*
X130862857Y-41461571D02*
X130505714Y-42461571D01*
X130148571Y-41461571D01*
X129005714Y-42390142D02*
X129148571Y-42461571D01*
X129434285Y-42461571D01*
X129577142Y-42390142D01*
X129648571Y-42247285D01*
X129648571Y-41675857D01*
X129577142Y-41533000D01*
X129434285Y-41461571D01*
X129148571Y-41461571D01*
X129005714Y-41533000D01*
X128934285Y-41675857D01*
X128934285Y-41818714D01*
X129648571Y-41961571D01*
X127362857Y-41747285D02*
X127434285Y-41675857D01*
X127577142Y-41604428D01*
X127719999Y-41604428D01*
X127862857Y-41675857D01*
X127934285Y-41747285D01*
X128005714Y-41890142D01*
X128005714Y-42033000D01*
X127934285Y-42175857D01*
X127862857Y-42247285D01*
X127719999Y-42318714D01*
X127577142Y-42318714D01*
X127434285Y-42247285D01*
X127362857Y-42175857D01*
X127362857Y-41604428D02*
X127362857Y-42175857D01*
X127291428Y-42247285D01*
X127219999Y-42247285D01*
X127077142Y-42175857D01*
X127005714Y-42033000D01*
X127005714Y-41675857D01*
X127148571Y-41461571D01*
X127362857Y-41318714D01*
X127648571Y-41247285D01*
X127934285Y-41318714D01*
X128148571Y-41461571D01*
X128291428Y-41675857D01*
X128362857Y-41961571D01*
X128291428Y-42247285D01*
X128148571Y-42461571D01*
X127934285Y-42604428D01*
X127648571Y-42675857D01*
X127362857Y-42604428D01*
X127148571Y-42461571D01*
X125719999Y-42390142D02*
X125862857Y-42461571D01*
X126148571Y-42461571D01*
X126291428Y-42390142D01*
X126362857Y-42318714D01*
X126434285Y-42175857D01*
X126434285Y-41747285D01*
X126362857Y-41604428D01*
X126291428Y-41533000D01*
X126148571Y-41461571D01*
X125862857Y-41461571D01*
X125719999Y-41533000D01*
X125077142Y-42461571D02*
X125077142Y-41461571D01*
X125077142Y-41747285D02*
X125005714Y-41604428D01*
X124934285Y-41533000D01*
X124791428Y-41461571D01*
X124648571Y-41461571D01*
X123934285Y-42461571D02*
X124077142Y-42390142D01*
X124148571Y-42318714D01*
X124219999Y-42175857D01*
X124219999Y-41747285D01*
X124148571Y-41604428D01*
X124077142Y-41533000D01*
X123934285Y-41461571D01*
X123719999Y-41461571D01*
X123577142Y-41533000D01*
X123505714Y-41604428D01*
X123434285Y-41747285D01*
X123434285Y-42175857D01*
X123505714Y-42318714D01*
X123577142Y-42390142D01*
X123719999Y-42461571D01*
X123934285Y-42461571D01*
X122934285Y-41461571D02*
X122148571Y-41461571D01*
X122934285Y-42461571D01*
X122148571Y-42461571D01*
X121577142Y-42318714D02*
X121505714Y-42390142D01*
X121577142Y-42461571D01*
X121648571Y-42390142D01*
X121577142Y-42318714D01*
X121577142Y-42461571D01*
X120219999Y-42390142D02*
X120362857Y-42461571D01*
X120648571Y-42461571D01*
X120791428Y-42390142D01*
X120862857Y-42318714D01*
X120934285Y-42175857D01*
X120934285Y-41747285D01*
X120862857Y-41604428D01*
X120791428Y-41533000D01*
X120648571Y-41461571D01*
X120362857Y-41461571D01*
X120219999Y-41533000D01*
X119362857Y-42461571D02*
X119505714Y-42390142D01*
X119577142Y-42318714D01*
X119648571Y-42175857D01*
X119648571Y-41747285D01*
X119577142Y-41604428D01*
X119505714Y-41533000D01*
X119362857Y-41461571D01*
X119148571Y-41461571D01*
X119005714Y-41533000D01*
X118934285Y-41604428D01*
X118862857Y-41747285D01*
X118862857Y-42175857D01*
X118934285Y-42318714D01*
X119005714Y-42390142D01*
X119148571Y-42461571D01*
X119362857Y-42461571D01*
X118219999Y-42318714D02*
X118148571Y-42390142D01*
X118219999Y-42461571D01*
X118291428Y-42390142D01*
X118219999Y-42318714D01*
X118219999Y-42461571D01*
X116862857Y-41461571D02*
X116862857Y-42461571D01*
X117505714Y-41461571D02*
X117505714Y-42247285D01*
X117434285Y-42390142D01*
X117291428Y-42461571D01*
X117077142Y-42461571D01*
X116934285Y-42390142D01*
X116862857Y-42318714D01*
X116148571Y-42461571D02*
X116148571Y-40961571D01*
X116005714Y-41890142D02*
X115577142Y-42461571D01*
X115577142Y-41461571D02*
X116148571Y-42033000D01*
M02*
