M48
INCH,TZ
T1C0.0157
T2C0.0236
T3C0.0315
T4C0.0354
T5C0.0394
T6C0.0433
T7C0.0630
%
G90
G05
T1
X18550Y-76050
X27700Y-60900
X27800Y-38700
X28100Y-63900
X28300Y-38500
X28600Y-64900
X28800Y-38000
X29100Y-43400
X30700Y-18100
X30700Y-20500
X30700Y-20500
X31700Y-17600
X31700Y-20500
X32700Y-42000
X33212Y-44088
X37700Y-51500
X37700Y-70700
X38011Y-50811
X38200Y-70500
X38574Y-58926
X38574Y-70000
X39300Y-41500
X40400Y-41500
X48700Y-28600
X49900Y-59400
X50000Y-48700
X50000Y-54600
X50400Y-59000
X50900Y-50800
X50900Y-51500
X50900Y-58600
X51500Y-48700
X52100Y-47157
X52100Y-48700
X52800Y-49600
X54700Y-47200
X55600Y-68900
X55800Y-49300
X55800Y-49800
X55800Y-50300
X56100Y-68500
X58000Y-68900
X58500Y-68500
X59000Y-70600
T2
X28200Y-14100
X28791Y-14100
T3
X19200Y-43531
X19200Y-45500
X50500Y-32900
X54500Y-32900
X24200Y-11100
X28200Y-11100
X60100Y-79200
X60100Y-81169
X19200Y-38100
X19200Y-42100
X50300Y-79300
X50300Y-81269
X50500Y-30100
X54500Y-30100
X18100Y-62931
X18100Y-64900
X29700Y-24100
X29700Y-30100
X30700Y-24100
X30700Y-30100
X31700Y-24100
X31700Y-30100
X32700Y-24100
X32700Y-30100
X33700Y-24100
X33700Y-30100
X34700Y-24100
X34700Y-30100
X35700Y-24100
X35700Y-30100
X36700Y-24100
X36700Y-30100
X37700Y-24100
X37700Y-30100
X38700Y-24100
X38700Y-30100
X39700Y-24100
X39700Y-30100
X40700Y-24100
X40700Y-30100
X41700Y-24100
X41700Y-30100
X42700Y-24100
X42700Y-30100
X43700Y-24100
X43700Y-30100
X44700Y-24100
X44700Y-30100
X45700Y-24100
X45700Y-30100
X46700Y-24100
X46700Y-30100
X47700Y-24100
X47700Y-30100
X48700Y-24100
X48700Y-30100
X20500Y-58900
X20500Y-59900
X20500Y-60900
X20500Y-61900
X20500Y-62900
X20500Y-63900
X20500Y-64900
X23500Y-58900
X23500Y-59900
X23500Y-60900
X23500Y-61900
X23500Y-62900
X23500Y-63900
X23500Y-64900
X28300Y-72000
X28300Y-73000
X28300Y-74000
X28300Y-75000
X28300Y-76000
X28300Y-77000
X28300Y-78000
X28300Y-79000
X31300Y-72000
X31300Y-73000
X31300Y-74000
X31300Y-75000
X31300Y-76000
X31300Y-77000
X31300Y-78000
X31300Y-79000
X35200Y-37100
X35200Y-43100
X36200Y-37100
X36200Y-43100
X37200Y-37100
X37200Y-43100
X38200Y-37100
X38200Y-43100
X39200Y-37100
X39200Y-43100
X40200Y-37100
X40200Y-43100
X41200Y-37100
X41200Y-43100
X42200Y-37100
X42200Y-43100
X43200Y-37100
X43200Y-43100
X44200Y-37100
X44200Y-43100
X45200Y-37100
X45200Y-43100
X46200Y-37100
X46200Y-43100
X47200Y-37100
X47200Y-43100
X48200Y-37100
X48200Y-43100
X49200Y-37100
X49200Y-43100
X50200Y-37100
X50200Y-43100
X51200Y-37100
X51200Y-43100
X52200Y-37100
X52200Y-43100
X53200Y-37100
X53200Y-43100
X54200Y-37100
X54200Y-43100
X52331Y-35700
X54300Y-35700
X15750Y-50450
X15750Y-53450
X21750Y-50450
X21750Y-53450
X50531Y-24100
X52500Y-24100
X28200Y-16600
X30169Y-16600
X20750Y-71800
X21537Y-71800
X45200Y-71100
X45200Y-72100
X45200Y-73100
X45200Y-74100
X45200Y-75100
X45200Y-76100
X45200Y-77100
X45200Y-78100
X45200Y-79100
X48200Y-71100
X48200Y-72100
X48200Y-73100
X48200Y-74100
X48200Y-75100
X48200Y-76100
X48200Y-77100
X48200Y-78100
X48200Y-79100
X34200Y-79031
X34200Y-81000
X26300Y-79031
X26300Y-81000
X50500Y-34300
X54500Y-34300
X21700Y-37100
X21700Y-38100
X21700Y-39100
X21700Y-40100
X21700Y-41100
X21700Y-42100
X21700Y-43100
X24700Y-37100
X24700Y-38100
X24700Y-39100
X24700Y-40100
X24700Y-41100
X24700Y-42100
X24700Y-43100
X36200Y-73000
X36200Y-74000
X36200Y-75000
X36200Y-76000
X36200Y-77000
X36200Y-78000
X36200Y-79000
X39200Y-73000
X39200Y-74000
X39200Y-75000
X39200Y-76000
X39200Y-77000
X39200Y-78000
X39200Y-79000
X50500Y-31500
X54500Y-31500
X55100Y-71100
X55100Y-72100
X55100Y-73100
X55100Y-74100
X55100Y-75100
X55100Y-76100
X55100Y-77100
X55100Y-78100
X55100Y-79100
X58100Y-71100
X58100Y-72100
X58100Y-73100
X58100Y-74100
X58100Y-75100
X58100Y-76100
X58100Y-77100
X58100Y-78100
X58100Y-79100
X53800Y-54100
X53800Y-55100
X53800Y-56100
X53800Y-57100
X53800Y-58100
X53800Y-59100
X53800Y-60100
X53800Y-61100
X53800Y-62100
X53800Y-63100
X53800Y-64100
X53800Y-65100
X59800Y-54100
X59800Y-55100
X59800Y-56100
X59800Y-57100
X59800Y-58100
X59800Y-59100
X59800Y-60100
X59800Y-61100
X59800Y-62100
X59800Y-63100
X59800Y-64100
X59800Y-65100
X49500Y-65500
X49500Y-67469
T4
X24900Y-16600
X25900Y-16600
T5
X26100Y-50500
X26100Y-51500
X26100Y-52500
X58550Y-37100
X58550Y-38100
X29700Y-34000
X30700Y-34000
X31700Y-34000
X32700Y-34000
X33700Y-34000
X34700Y-34000
X35700Y-34000
X36700Y-34000
X37700Y-34000
X38700Y-34000
X39700Y-34000
X40700Y-34000
X41700Y-34000
X42700Y-34000
X43700Y-34000
X44700Y-34000
X59000Y-26000
X33950Y-12550
X34950Y-12550
X35950Y-12550
X36950Y-12550
X37950Y-12550
X38950Y-12550
X39950Y-12550
X40950Y-12550
X41950Y-12550
X42950Y-12550
X35800Y-46700
X36800Y-46700
X58500Y-41900
X58500Y-42900
X19300Y-9600
X19300Y-10600
X41600Y-46700
X42600Y-46700
X43600Y-46700
X44600Y-46700
X45600Y-46700
X46600Y-46700
X47600Y-46700
X48600Y-46700
T6
X20100Y-76050
X20100Y-77822
X22659Y-76050
X22659Y-77822
T7
X16300Y-14500
X21300Y-14500
X16200Y-18200
X16200Y-19775
X16200Y-21350
X16200Y-24499
X16200Y-26074
X16200Y-27649
X16200Y-29224
X16200Y-30798
X16200Y-32373
X16239Y-22924
X62361Y-27576
X62400Y-18127
X62400Y-19702
X62400Y-21276
X62400Y-22851
X62400Y-24426
X62400Y-26001
X62400Y-29150
X62400Y-30725
X62400Y-32300
T0
M30
